<svg class="logo logo--main" version="1.1" id="Layer_1" xmlns="http://www.w3.org/2000/svg" xmlns:xlink="http://www.w3.org/1999/xlink" x="0px" y="0px"
	 viewBox="0 0 197.4 197.5" style="enable-background:new 0 0 197.4 197.5;" xml:space="preserve">
<polygon class="st0" points="179.1,42.3 173.2,47.7 186.4,62 174.1,74.6 179.8,80.2 191.9,67.8 191.9,56.2 "/>
<polygon class="st0" points="23.4,152 10.2,137.7 22.5,125.1 16.8,119.5 5.5,131.1 5.5,144.4 17.5,157.4 "/>
<polygon class="st0" points="0,136.7 0,138.4 0,138.4 "/>
<polygon class="st0" points="79.1,168.8 84.8,174.5 104.1,155.2 92.8,155.2 "/>
<polygon class="st0" points="154.4,78.6 172.5,60.5 136.7,24.7 117.7,43.7 154.4,43.7 "/>
<polygon class="st0" points="173.8,85.5 168.1,79.9 154.4,93.6 154.4,104.9 "/>
<polygon class="st0" points="45.3,90.8 45.3,90.9 45.3,102.2 45.3,102.1 "/>
<polygon class="st0" points="117.5,29.9 111.9,24.3 92.4,43.7 103.8,43.7 "/>
<polygon class="st0" points="45.3,116.1 45.3,152.2 45.3,152.2 "/>
<polygon class="st0" points="155.4,169.3 141.2,155.2 129.9,155.2 149.8,175.1 155.4,169.5 155.3,169.4 "/>
<polygon class="st0" points="45.3,59.3 45.3,59.2 45.3,70.5 45.3,70.6 "/>
<polygon class="st0" points="42.3,119.1 23.5,137.9 59.3,173.7 77.8,155.2 42.3,155.2 "/>
<polygon class="st0" points="167.9,156.7 168,156.6 168.1,156.7 173.6,151.1 154.4,131.9 154.4,143.2 "/>
<polygon class="st0" points="48.7,26.7 43.1,32.3 54.5,43.7 65.8,43.7 "/>
<polygon class="st0" points="30.6,44.5 24.9,50.2 42.3,67.5 42.3,56.2 "/>
<polygon class="st0" points="42.3,105.2 42.3,93.9 22.4,113.7 28.1,119.4 "/>
<polygon class="st0" points="151.4,46.7 151.4,81.6 151.4,81.6 151.4,46.7 114.7,46.7 114.7,46.7 "/>
<polygon class="st0" points="151.4,107.9 151.4,107.9 151.4,96.6 151.4,96.6 "/>
<polygon class="st0" points="151.4,140.2 151.4,140.2 151.4,129 151.4,128.9 "/>
<polygon class="st0" points="100.7,46.7 100.8,46.7 89.4,46.7 89.4,46.7 "/>
<polygon class="st0" points="68.9,46.7 68.8,46.7 57.5,46.7 57.5,46.7 "/>
<path class="st0" d="M137.2,0L137.2,0L137.2,0z"/>
<polygon class="st0" points="117.3,18.3 122.7,24.2 137,11 149.6,23.4 155.2,17.7 142.8,5.5 131.2,5.5 "/>
<polygon class="st0" points="194.4,3 194.4,58.9 197.4,62.2 194.4,65.2 194.4,194.5 194.4,194.5 194.4,194.5 63.8,194.5 60.6,197.5 
	197.4,197.5 197.4,0 137.2,0 140.2,3 "/>
<polygon class="st0" points="3,3 133.9,3 137.2,0 0,0 0,136.7 3,133.7 "/>
<polygon class="st0" points="3,194.5 3,194.5 3,194.5 3,141.7 0,138.4 0,197.5 58.5,197.5 55.4,194.5 "/>
<polygon class="st0" points="197.4,62.2 194.4,58.9 194.4,65.2 "/>
<polygon class="st0" points="197.4,62.2 194.4,58.9 194.4,65.2 "/>
<polygon class="st0" points="3,133.7 0,136.7 0,138.4 3,141.7 "/>
<polygon class="st0" points="3,133.7 0,136.7 0,138.4 3,141.7 "/>
<polygon class="st0" points="140.2,3 137.2,0 137.2,0 133.9,3 "/>
<polygon class="st0" points="140.2,3 137.2,0 137.2,0 133.9,3 "/>
<path class="st0" d="M5.5,5.5v38.3L42.4,5.5L5.5,5.5z M12.8,13.1h11.9L12.8,25.4V13.1z"/>
<path class="st0" d="M5.5,192h38.3L5.5,155.1V192z M13.1,172.7l12.2,11.9H13.1V172.7z"/>
<path class="st0" d="M155.1,192H192v-38.3L155.1,192z M172.7,184.4l11.9-12.2v12.2H172.7z"/>
<path class="st0" d="M154.7,5.5l37.2,35.8V5.5H154.7z M173.2,12.8h12.2v11.9L173.2,12.8z"/>
<path class="st0" d="M156.1,117.4l35.9,35.9V136l-1-53.5L156.1,117.4z M170.2,117.7l11.3-11.3l0.3,22.8L170.2,117.7z"/>
<path class="st0" d="M115.6,5.5L44.5,5.6l34.2,35.5L115.6,5.5z M91,15.6L79.3,27L68.2,15.5L91,15.6z"/>
<path class="st0" d="M118,156.4L81.2,192h8.9l62.2-0.1L118,156.4z M117.5,170.5l11.1,11.5l-22.8-0.1L117.5,170.5z"/>
<path class="st0" d="M5.5,45.4l0.1,71.1l35.5-34.3L5.5,45.4z M15.6,69.9L27,81.7L15.5,92.8L15.6,69.9z"/>
<path class="st0" d="M128.1,105c0,0.1,0,0.2,0,0.4l0,0c2.2-0.6,4.2-1.3,6-2.1l0.9-0.4l0.1,0.7c0,0.2,0.1,0.4,0.1,0.5
	c0,1.2-0.7,3.4-2.1,6.7l0.1,0.1c1.9-2,3.7-3.7,5.3-4.9c2.3-1.8,4.1-2.7,5.5-2.7c0.3,0,0.5,0,0.7,0.1l6.7-6.7v-15L128.1,105
	C128.1,104.9,128.1,105,128.1,105z"/>
<path class="st0" d="M141,106.6c-0.1,0-0.7,0.1-2.5,1.6c-1.3,1.1-2.7,2.4-4,3.8c0,0,0,0.1-0.1,0.1l0.7,0.7l5.8-5.8
	c0-0.1,0-0.1,0-0.2C141.1,106.7,141,106.6,141,106.6z"/>
<path class="st0" d="M70.3,77.2l-3.5,3.5l7,7l0.3-0.3c0.3-2.6,1.7-5,4.1-7.4C75.4,78.2,72.7,77.3,70.3,77.2z"/>
<path class="st0" d="M65,93.4c0.5,0.4,1.1,0.8,1.7,1.2l1.3-1.3l-7-7l0,0C61.3,89.1,62.7,91.4,65,93.4z"/>
<polygon class="st0" points="89.7,67.5 93.9,67.5 114.7,46.7 100.7,46.7 84.8,62.6 "/>
<polygon class="st0" points="89.4,46.7 68.9,46.7 79.2,57 "/>
<polygon class="st0" points="73.5,62.6 57.5,46.7 45.3,46.7 45.3,59.3 61.1,75 "/>
<path class="st0" d="M77.9,83.5l2.2-2.2c-0.1-0.1-0.2-0.1-0.3-0.2C79,81.8,78.4,82.6,77.9,83.5z"/>
<polygon class="st0" points="151.4,128.9 151.4,107.9 140.9,118.4 "/>
<path class="st0" d="M63.7,96.8c-2.7-2.3-4.4-5-4.9-8.2l-13.5,13.5V116l18.9-18.9C64,97.1,63.9,96.9,63.7,96.8z"/>
<polygon class="st0" points="122.7,136.6 138.2,152.2 151.4,152.2 151.4,140.2 135.2,124.1 "/>
<polygon class="st0" points="103.9,129.1 80.8,152.2 95.8,152.2 111.4,136.6 "/>
<polygon class="st0" points="107.1,152.2 126.9,152.2 117,142.3 "/>
<path class="st0" d="M121.4,111.6C121.4,111.7,121.3,111.7,121.4,111.6l-7.6,7.5c0,0.1,0,0.2,0,0.2c0,1.7,0.8,2,1.5,2
	c1.3,0,2.8-0.8,4.3-2.3c1.6-1.6,2.9-3.7,3.9-6.2l0.1-0.3l-1.4-1.4C122,111.4,121.7,111.5,121.4,111.6z"/>
<path class="st0" d="M123.8,123.5c1.1-2.3,2.2-4.7,3.3-7.4l-2.4-2.4c0,0.2,0.1,0.4,0.1,0.5c0,1.7-1.1,3.5-3.3,5.6
	c-3.2,3-5.9,4.5-8.2,4.5c-1.1,0-2.4-0.4-2.9-1.8l-0.9,0.9l7.5,7.5l6.3-6.3h-0.1L123.8,123.5z"/>
<path class="st0" d="M84.6,76.8l1.6-1.6L84,73c-0.1,0.1-0.1,0.2-0.2,0.4L83.5,74l-2-0.4l0.5-1.1c0.2-0.4,0.3-0.7,0.5-1l-3.3-3.2
	l-6.5,6.5c3.2,0.2,6.2,1.1,9.2,2.9C82.7,77.3,83.6,77,84.6,76.8z"/>
<polygon class="st0" points="45.3,70.6 45.3,90.8 55.4,80.7 "/>
<path class="st0" d="M130.4,107c0-0.4-0.1-0.4-0.2-0.4c-0.1,0-0.3,0-1,0.2l1,1C130.4,107.4,130.4,107.1,130.4,107z"/>
<path class="st0" d="M134.5,86c1.2-0.8,1.8-1.7,1.8-2.6c0-0.2,0-0.6-1-0.6c-1.6,0-3.3,1-5,3.1c-0.4,0.4-0.7,0.9-1,1.4
	c0.5,0.1,0.8,0.1,1.1,0.1C131.8,87.3,133.2,86.9,134.5,86z"/>
<path class="st0" d="M134.5,86c1.2-0.8,1.8-1.7,1.8-2.6c0-0.2,0-0.6-1-0.6c-1.6,0-3.3,1-5,3.1c-0.4,0.4-0.7,0.9-1,1.4
	c0.5,0.1,0.8,0.1,1.1,0.1C131.8,87.3,133.2,86.9,134.5,86z"/>
<path class="st0" d="M58.6,86.3c0-3.4,1.2-6.2,3.7-8.3c2.4-2.1,5.6-3.2,9.4-3.2c0.3,0,0.7,0,1,0l6.5-6.5l3.3,3.2
	c0.2-0.4,0.4-0.8,0.5-1.2l0.9-2.1c0-0.1,0.1-0.2,0.2-0.5l0.1-0.3h5.6l-4.9-4.9l15.8-15.8H89.4L79.2,57L68.9,46.7H57.6l16,15.9
	L61.1,75L45.3,59.2v11.3l10.1,10.1L45.3,90.7V102l13.5-13.5C58.7,87.9,58.6,87.1,58.6,86.3z"/>
<path class="st0" d="M58.6,86.3c0-3.4,1.2-6.2,3.7-8.3c2.4-2.1,5.6-3.2,9.4-3.2c0.3,0,0.7,0,1,0l6.5-6.5l3.3,3.2
	c0.2-0.4,0.4-0.8,0.5-1.2l0.9-2.1c0-0.1,0.1-0.2,0.2-0.5l0.1-0.3h5.6l-4.9-4.9l15.8-15.8H89.4L79.2,57L68.9,46.7H57.6l16,15.9
	L61.1,75L45.3,59.2v11.3l10.1,10.1L45.3,90.7V102l13.5-13.5C58.7,87.9,58.6,87.1,58.6,86.3z"/>
<path class="st0" d="M130.2,107.8l-1-1c-0.1,0-0.3,0.1-0.4,0.1l-0.8,0.2l-0.2-1c-0.2,0.4-0.4,0.8-0.7,1.2c-0.6,0.9-1.4,1.7-2.4,2.4
	c-0.7,0.5-1.5,1-2.4,1.4l1.4,1.4l0.3-0.8l0.5,1c0.1,0.3,0.2,0.6,0.3,0.9l2.4,2.4c0.4-0.9,0.7-1.7,1.1-2.6
	C129.4,110.3,130,108.7,130.2,107.8z"/>
<path class="st0" d="M130.2,107.8l-1-1c-0.1,0-0.3,0.1-0.4,0.1l-0.8,0.2l-0.2-1c-0.2,0.4-0.4,0.8-0.7,1.2c-0.6,0.9-1.4,1.7-2.4,2.4
	c-0.7,0.5-1.5,1-2.4,1.4l1.4,1.4l0.3-0.8l0.5,1c0.1,0.3,0.2,0.6,0.3,0.9l2.4,2.4c0.4-0.9,0.7-1.7,1.1-2.6
	C129.4,110.3,130,108.7,130.2,107.8z"/>
<path class="st0" d="M118.2,112.5c-0.6,0-1.3-0.2-1.8-1.1c-0.5,0.9-1,1.8-1.4,2.7c-0.8,1.9-1.2,3.5-1.2,5l7.5-7.5
	C120,112.2,119,112.5,118.2,112.5z"/>
<path class="st0" d="M118.2,112.5c-0.6,0-1.3-0.2-1.8-1.1c-0.5,0.9-1,1.8-1.4,2.7c-0.8,1.9-1.2,3.5-1.2,5l7.5-7.5
	C120,112.2,119,112.5,118.2,112.5z"/>
<path class="st0" d="M93.4,78.9c1.6,1.6,2.4,3.7,2.4,6.3c0,2.2-0.9,4.7-2.7,7.6l-0.4,0.6l-0.4-0.6c-3.6-4.5-7.7-8.4-12.2-11.6
	l-2.2,2.2c-0.8,1.4-1.2,3.1-1.2,5c0,1.3,0.2,2.7,0.7,4.2l0.4,1.3l-1.1-0.7c-1.7-1.1-2.6-2.8-2.6-4.8c0-0.3,0-0.7,0.1-1l-0.3,0.3
	l-7-7l3.5-3.5c-0.2,0-0.3,0-0.5,0c-2.5,0-4.7,0.8-6.3,2.3c-1.7,1.5-2.5,3.4-2.5,5.8c0,0.4,0,0.8,0.1,1.1l0,0l7,7l-1.3,1.3
	c1.3,0.8,2.8,1.5,4.5,2c1,0.3,2.1,0.5,3.2,0.7c2.8-0.5,5.8-0.7,8.9-0.7c1.3,0,2.5,0,3.7,0.1c4.8-1.4,9-4.2,12.5-8.5
	c3.2-3.9,6-9.5,8.4-16.7H88.5l-2.1,0.1c-0.7,0.1-1.3,0.2-1.6,0.4c-0.3,0.2-0.6,0.5-0.8,1l2.2,2.2l-1.6,1.6c0.9-0.2,1.7-0.3,2.7-0.3
	C89.7,76.5,91.8,77.3,93.4,78.9z"/>
<path class="st0" d="M93.4,78.9c1.6,1.6,2.4,3.7,2.4,6.3c0,2.2-0.9,4.7-2.7,7.6l-0.4,0.6l-0.4-0.6c-3.6-4.5-7.7-8.4-12.2-11.6
	l-2.2,2.2c-0.8,1.4-1.2,3.1-1.2,5c0,1.3,0.2,2.7,0.7,4.2l0.4,1.3l-1.1-0.7c-1.7-1.1-2.6-2.8-2.6-4.8c0-0.3,0-0.7,0.1-1l-0.3,0.3
	l-7-7l3.5-3.5c-0.2,0-0.3,0-0.5,0c-2.5,0-4.7,0.8-6.3,2.3c-1.7,1.5-2.5,3.4-2.5,5.8c0,0.4,0,0.8,0.1,1.1l0,0l7,7l-1.3,1.3
	c1.3,0.8,2.8,1.5,4.5,2c1,0.3,2.1,0.5,3.2,0.7c2.8-0.5,5.8-0.7,8.9-0.7c1.3,0,2.5,0,3.7,0.1c4.8-1.4,9-4.2,12.5-8.5
	c3.2-3.9,6-9.5,8.4-16.7H88.5l-2.1,0.1c-0.7,0.1-1.3,0.2-1.6,0.4c-0.3,0.2-0.6,0.5-0.8,1l2.2,2.2l-1.6,1.6c0.9-0.2,1.7-0.3,2.7-0.3
	C89.7,76.5,91.8,77.3,93.4,78.9z"/>
<path class="st0" d="M93.2,87.9c0.3-0.8,0.4-1.6,0.4-2.3c0-1.9-0.7-3.5-2.1-4.9c-1.4-1.4-3.1-2.1-5.1-2.1c-0.8,0-1.7,0.1-2.6,0.4
	C87,81.2,90.1,84.2,93.2,87.9z"/>
<path class="st0" d="M93.2,87.9c0.3-0.8,0.4-1.6,0.4-2.3c0-1.9-0.7-3.5-2.1-4.9c-1.4-1.4-3.1-2.1-5.1-2.1c-0.8,0-1.7,0.1-2.6,0.4
	C87,81.2,90.1,84.2,93.2,87.9z"/>
<path class="st0" d="M122.4,109.1c1.2-0.8,1.8-1.7,1.8-2.6c0-0.2,0-0.6-1-0.6c-1.6,0-3.3,1-5,3.1c-0.4,0.4-0.7,0.9-1,1.4
	c0.5,0.1,0.8,0.1,1.1,0.1C119.7,110.4,121.1,109.9,122.4,109.1z"/>
<path class="st0" d="M122.4,109.1c1.2-0.8,1.8-1.7,1.8-2.6c0-0.2,0-0.6-1-0.6c-1.6,0-3.3,1-5,3.1c-0.4,0.4-0.7,0.9-1,1.4
	c0.5,0.1,0.8,0.1,1.1,0.1C119.7,110.4,121.1,109.9,122.4,109.1z"/>
<path class="st0" d="M103.9,129.1l7.5,7.5l-15.6,15.6h11.3l9.9-9.9l9.9,9.9h11.3l-15.5-15.6l12.5-12.5l16.2,16.2V129l-10.6-10.5
	l10.6-10.6V96.6l-6.7,6.7c0.6,0.2,1,0.8,1,1.6c0,0.6-0.3,2-3.2,7.5c-3.3,6.4-3.7,7.7-3.7,7.9c0,0.1,0,0.2,0,0.2s0,0,0.1,0
	c0.3,0,0.8-0.1,1.7-0.7l0.5-0.4l0.9,1.5l-0.4,0.3c-2,1.4-4.3,2.4-7,2.9l-0.7,0.1l0.1-0.7c0.3-2.7,1.9-6.7,4.7-12.1l1.5-3
	c0.5-0.9,0.6-1.4,0.7-1.6l-5.8,5.8l-0.7-0.7c-2.6,3-4.9,6.5-6.6,10.7l-0.1,0.2l-0.2,0.1c-0.7,0.2-1.8,0.5-3.1,1.1l-1.1,0.5l-6.3,6.3
	l-7.5-7.5l0.9-0.9c-0.2-0.5-0.3-1.1-0.3-1.9c0-2.5,0.8-5.1,2.2-7.8c1.5-2.7,3.4-4.9,5.7-6.6c2.8-2.1,5.4-3.2,7.7-3.2
	c2,0,2.4,1.1,2.4,1.8l23.3-23.3V46.7h-36.7L93.9,67.5h18.5l-0.4,1.2c-0.2,0.5-0.4,1-0.5,1.5h0.1c1.9-0.6,3.8-1.5,5.6-2.5l1.1-0.7
	l0.1,0.8c0,0.3,0,0.6,0,0.7c0,1.2-0.4,3-1.2,5.4c-0.8,2.3-2.4,6.4-4.8,12.1l-1.6,3.8c5.3-6.3,9.2-9.4,11.7-9.4c1,0,1.6,0.6,1.6,1.6
	c0,0.6-0.3,1.6-0.9,2.9l-1.5,3.3c-3.2,7.1-3.7,8.9-3.7,9.4c0.2,0,0.7-0.1,1.9-0.7l0.6-0.3l1,1.4l-0.5,0.3c-1.6,0.9-3.6,1.7-6.1,2.6
	l-1.3,0.5l0.1-0.8c0.2-2.6,1.9-7.3,5.2-14.4c0.6-1.4,0.7-1.8,0.7-2s0-0.3,0-0.3c-0.1,0-0.5,0.1-1.9,1.2c-1,0.8-2,1.8-3,2.8
	c-1.5,1.6-3,3.6-4.4,5.8c-1.5,2.2-2.6,4.1-3.3,5.8l-0.1,0.3h-0.3c-1.1,0.1-2,0.4-2.9,0.9l-1.2,0.6l0.8-1.9c1.1-2.5,2.1-5,3-7.3
	l2.8-7.1l2.8-7.1c1.7-4.2,2-5.7,2-6.2c0-0.3-0.1-0.3-0.3-0.3c-0.1,0-0.4,0-1.3,0.3l-0.6,0.3l-0.4-1.2c-3.4,9.1-7.5,16.1-12.1,20.8
	c-2.4,2.4-5.1,4.4-8.1,5.9l-2.2,5.6c2.7,0.8,4.8,1.8,6.1,3.2c1.4,1.5,2.1,3.4,2.1,5.7c0,4.4-2.1,8.4-6.2,12c-2.5,2.2-5.6,4-9.2,5.2
	s-7.4,1.8-11.3,1.8c-5.9,0-10.7-1.2-14.2-3.7c-3.6-2.5-5.4-5.9-5.4-10.2c0-3.2,1-6.2,2.8-8.9c1.9-2.7,4.6-5,8.1-6.8
	c1.8-1,3.7-1.8,5.7-2.4c-1.2-0.5-2.2-1.2-3.2-1.9L45.3,116v36.1h35.5L103.9,129.1z M124.4,89.9c1.5-2.7,3.4-4.9,5.7-6.6
	c2.8-2.1,5.4-3.2,7.7-3.2c2.1,0,2.4,1.2,2.4,1.9c0,0.7-0.3,1.5-1,2.5c-0.6,0.9-1.4,1.7-2.4,2.4c-0.9,0.6-2,1.2-3.3,1.8
	c-1.4,0.6-2.4,0.8-3.2,0.8c-0.6,0-1.3-0.2-1.8-1.1c-0.5,0.9-1,1.8-1.4,2.7c-0.8,2-1.2,3.7-1.2,5.2c0,1.7,0.8,2,1.5,2
	c1.3,0,2.8-0.8,4.3-2.3c1.6-1.6,2.9-3.7,3.9-6.2l0.4-1l0.5,1c0.2,0.5,0.4,1,0.4,1.4c0,1.7-1.1,3.5-3.3,5.6c-3.2,3-5.9,4.5-8.2,4.5
	c-1.5,0-3.3-0.6-3.3-3.7C122.1,95.2,122.9,92.6,124.4,89.9z M95.2,123.6c1.2-2.6,2.3-5.5,3.2-8.6s1.4-5.4,1.4-6.8
	c0-1.1-0.2-1.8-0.5-1.8c-0.1,0-0.5,0.1-1.8,0.9l-0.5,0.3l-0.9-1.6l0.8-0.5c2.2-1.4,3.7-2.1,4.7-2.1s2.1,0.6,2.1,3.6
	c0,2.3-0.8,5.6-2.4,9.8l-1.1,2.8c6-3.1,9.6-7.2,10.7-12.2h-1.4c-1.6,0-2.3,0.2-2.6,0.3s-0.7,0.5-1.2,1.5l-0.3,0.7h-2l0.4-0.7
	c1-1.8,1.7-3.4,2.2-4.9l0.1-0.3h8.9l-0.2,0.7c-2.4,7.5-7.2,13.2-14.3,17.1l-4.2,2.3c-0.1,0.1-0.3,0.1-0.5,0.2l-1.3,0.7L95.2,123.6z"
	/>
<path class="st0" d="M103.9,129.1l7.5,7.5l-15.6,15.6h11.3l9.9-9.9l9.9,9.9h11.3l-15.5-15.6l12.5-12.5l16.2,16.2V129l-10.6-10.5
	l10.6-10.6V96.6l-6.7,6.7c0.6,0.2,1,0.8,1,1.6c0,0.6-0.3,2-3.2,7.5c-3.3,6.4-3.7,7.7-3.7,7.9c0,0.1,0,0.2,0,0.2s0,0,0.1,0
	c0.3,0,0.8-0.1,1.7-0.7l0.5-0.4l0.9,1.5l-0.4,0.3c-2,1.4-4.3,2.4-7,2.9l-0.7,0.1l0.1-0.7c0.3-2.7,1.9-6.7,4.7-12.1l1.5-3
	c0.5-0.9,0.6-1.4,0.7-1.6l-5.8,5.8l-0.7-0.7c-2.6,3-4.9,6.5-6.6,10.7l-0.1,0.2l-0.2,0.1c-0.7,0.2-1.8,0.5-3.1,1.1l-1.1,0.5l-6.3,6.3
	l-7.5-7.5l0.9-0.9c-0.2-0.5-0.3-1.1-0.3-1.9c0-2.5,0.8-5.1,2.2-7.8c1.5-2.7,3.4-4.9,5.7-6.6c2.8-2.1,5.4-3.2,7.7-3.2
	c2,0,2.4,1.1,2.4,1.8l23.3-23.3V46.7h-36.7L93.9,67.5h18.5l-0.4,1.2c-0.2,0.5-0.4,1-0.5,1.5h0.1c1.9-0.6,3.8-1.5,5.6-2.5l1.1-0.7
	l0.1,0.8c0,0.3,0,0.6,0,0.7c0,1.2-0.4,3-1.2,5.4c-0.8,2.3-2.4,6.4-4.8,12.1l-1.6,3.8c5.3-6.3,9.2-9.4,11.7-9.4c1,0,1.6,0.6,1.6,1.6
	c0,0.6-0.3,1.6-0.9,2.9l-1.5,3.3c-3.2,7.1-3.7,8.9-3.7,9.4c0.2,0,0.7-0.1,1.9-0.7l0.6-0.3l1,1.4l-0.5,0.3c-1.6,0.9-3.6,1.7-6.1,2.6
	l-1.3,0.5l0.1-0.8c0.2-2.6,1.9-7.3,5.2-14.4c0.6-1.4,0.7-1.8,0.7-2s0-0.3,0-0.3c-0.1,0-0.5,0.1-1.9,1.2c-1,0.8-2,1.8-3,2.8
	c-1.5,1.6-3,3.6-4.4,5.8c-1.5,2.2-2.6,4.1-3.3,5.8l-0.1,0.3h-0.3c-1.1,0.1-2,0.4-2.9,0.9l-1.2,0.6l0.8-1.9c1.1-2.5,2.1-5,3-7.3
	l2.8-7.1l2.8-7.1c1.7-4.2,2-5.7,2-6.2c0-0.3-0.1-0.3-0.3-0.3c-0.1,0-0.4,0-1.3,0.3l-0.6,0.3l-0.4-1.2c-3.4,9.1-7.5,16.1-12.1,20.8
	c-2.4,2.4-5.1,4.4-8.1,5.9l-2.2,5.6c2.7,0.8,4.8,1.8,6.1,3.2c1.4,1.5,2.1,3.4,2.1,5.7c0,4.4-2.1,8.4-6.2,12c-2.5,2.2-5.6,4-9.2,5.2
	s-7.4,1.8-11.3,1.8c-5.9,0-10.7-1.2-14.2-3.7c-3.6-2.5-5.4-5.9-5.4-10.2c0-3.2,1-6.2,2.8-8.9c1.9-2.7,4.6-5,8.1-6.8
	c1.8-1,3.7-1.8,5.7-2.4c-1.2-0.5-2.2-1.2-3.2-1.9L45.3,116v36.1h35.5L103.9,129.1z M124.4,89.9c1.5-2.7,3.4-4.9,5.7-6.6
	c2.8-2.1,5.4-3.2,7.7-3.2c2.1,0,2.4,1.2,2.4,1.9c0,0.7-0.3,1.5-1,2.5c-0.6,0.9-1.4,1.7-2.4,2.4c-0.9,0.6-2,1.2-3.3,1.8
	c-1.4,0.6-2.4,0.8-3.2,0.8c-0.6,0-1.3-0.2-1.8-1.1c-0.5,0.9-1,1.8-1.4,2.7c-0.8,2-1.2,3.7-1.2,5.2c0,1.7,0.8,2,1.5,2
	c1.3,0,2.8-0.8,4.3-2.3c1.6-1.6,2.9-3.7,3.9-6.2l0.4-1l0.5,1c0.2,0.5,0.4,1,0.4,1.4c0,1.7-1.1,3.5-3.3,5.6c-3.2,3-5.9,4.5-8.2,4.5
	c-1.5,0-3.3-0.6-3.3-3.7C122.1,95.2,122.9,92.6,124.4,89.9z M95.2,123.6c1.2-2.6,2.3-5.5,3.2-8.6s1.4-5.4,1.4-6.8
	c0-1.1-0.2-1.8-0.5-1.8c-0.1,0-0.5,0.1-1.8,0.9l-0.5,0.3l-0.9-1.6l0.8-0.5c2.2-1.4,3.7-2.1,4.7-2.1s2.1,0.6,2.1,3.6
	c0,2.3-0.8,5.6-2.4,9.8l-1.1,2.8c6-3.1,9.6-7.2,10.7-12.2h-1.4c-1.6,0-2.3,0.2-2.6,0.3s-0.7,0.5-1.2,1.5l-0.3,0.7h-2l0.4-0.7
	c1-1.8,1.7-3.4,2.2-4.9l0.1-0.3h8.9l-0.2,0.7c-2.4,7.5-7.2,13.2-14.3,17.1l-4.2,2.3c-0.1,0.1-0.3,0.1-0.5,0.2l-1.3,0.7L95.2,123.6z"
	/>
<path class="st0" d="M133.2,110.8l-0.1-0.1c-0.1,0.1-0.1,0.2-0.2,0.4C133,111,133.1,110.9,133.2,110.8z"/>
<path class="st0" d="M133.2,110.8l-0.1-0.1c-0.1,0.1-0.1,0.2-0.2,0.4C133,111,133.1,110.9,133.2,110.8z"/>
<path class="st0" d="M70.6,100.2c-3.8,0.8-6.9,2.1-9.2,4c-1.9,1.6-3.4,3.5-4.4,5.7c-1.1,2.2-1.6,4.5-1.6,6.8c0,3.7,1.3,6.5,4.1,8.6
	c3.1,2.4,7.4,3.6,12.7,3.6c5.8,0,10.7-1.6,14.5-4.8c3.9-3.2,5.8-7.1,5.8-11.8c0-1.9-0.5-3.5-1.4-4.9c-0.8-1.2-1.9-2-3.2-2.4
	c-2.1,4.4-4.9,7.9-8.5,10.4c-3.7,2.5-7.9,3.8-12.5,3.8h-2.3c-0.4,0-0.8,0-1.1,0.1c-0.3,0.1-0.7,0.2-1.2,0.4l-1.3,0.6l0.7-1.3
	c0.2-0.3,0.3-0.5,0.3-0.6l0.6-1.2c0.7-1.3,1.9-2,3.5-2h3.3c1.3,0,2.6-0.1,3.8-0.2c2.9-0.4,5.3-1.4,7.2-3.2c1.9-1.7,3.5-4.2,4.9-7.5
	c-1.4-0.3-2.8-0.4-4-0.4c-3.6,0-6.7,0.8-9.2,2.3c-2.4,1.5-4.1,3.7-4.8,6.5l-0.3,1l-0.6-0.9c-0.5-0.7-0.7-1.4-0.7-2.1
	c0-2.6,1.6-4.7,4.7-6.4c3-1.6,6.8-2.4,11.3-2.4c1.2,0,2.7,0.1,4.3,0.3h0.1l0.9-2.6c-0.6-0.1-1.2-0.1-1.8-0.2
	c-2.7,0.8-5.5,1.2-8.2,1.2C74.8,101,72.6,100.7,70.6,100.2z"/>
<path class="st0" d="M70.6,100.2c-3.8,0.8-6.9,2.1-9.2,4c-1.9,1.6-3.4,3.5-4.4,5.7c-1.1,2.2-1.6,4.5-1.6,6.8c0,3.7,1.3,6.5,4.1,8.6
	c3.1,2.4,7.4,3.6,12.7,3.6c5.8,0,10.7-1.6,14.5-4.8c3.9-3.2,5.8-7.1,5.8-11.8c0-1.9-0.5-3.5-1.4-4.9c-0.8-1.2-1.9-2-3.2-2.4
	c-2.1,4.4-4.9,7.9-8.5,10.4c-3.7,2.5-7.9,3.8-12.5,3.8h-2.3c-0.4,0-0.8,0-1.1,0.1c-0.3,0.1-0.7,0.2-1.2,0.4l-1.3,0.6l0.7-1.3
	c0.2-0.3,0.3-0.5,0.3-0.6l0.6-1.2c0.7-1.3,1.9-2,3.5-2h3.3c1.3,0,2.6-0.1,3.8-0.2c2.9-0.4,5.3-1.4,7.2-3.2c1.9-1.7,3.5-4.2,4.9-7.5
	c-1.4-0.3-2.8-0.4-4-0.4c-3.6,0-6.7,0.8-9.2,2.3c-2.4,1.5-4.1,3.7-4.8,6.5l-0.3,1l-0.6-0.9c-0.5-0.7-0.7-1.4-0.7-2.1
	c0-2.6,1.6-4.7,4.7-6.4c3-1.6,6.8-2.4,11.3-2.4c1.2,0,2.7,0.1,4.3,0.3h0.1l0.9-2.6c-0.6-0.1-1.2-0.1-1.8-0.2
	c-2.7,0.8-5.5,1.2-8.2,1.2C74.8,101,72.6,100.7,70.6,100.2z"/>
<polygon class="st0" points="167.9,156.7 155.4,169.3 155.5,169.4 155.4,169.5 161,175 173.7,162.2 168.1,156.7 168,156.7 "/>
<rect x="25.3" y="31.5" transform="matrix(0.7137 -0.7005 0.7005 0.7137 -15.1067 34.0517)" class="st0" width="17.6" height="8"/>
<rect x="161.1" y="23.3" transform="matrix(0.7276 -0.686 0.686 0.7276 21.5273 122.5759)" class="st0" width="8" height="21.7"/>
<rect x="28.5" y="155.4" transform="matrix(0.7276 -0.686 0.686 0.7276 -105.1858 67.5808)" class="st0" width="8" height="21.7"/>
<rect x="155.3" y="169.4" transform="matrix(0.7034 -0.7108 0.7108 0.7034 -74.3779 160.7198)" class="st0" width="0.1" height="0.1"/>
<rect x="155.3" y="169.4" transform="matrix(0.7034 -0.7108 0.7108 0.7034 -74.3779 160.7198)" class="st0" width="0.1" height="0.1"/>
<rect x="167.9" y="156.6" transform="matrix(0.7058 -0.7084 0.7084 0.7058 -61.5792 165.0385)" class="st0" width="0.1" height="0.1"/>
<rect x="167.9" y="156.6" transform="matrix(0.7058 -0.7084 0.7084 0.7058 -61.5792 165.0385)" class="st0" width="0.1" height="0.1"/>
<polygon class="st0" points="79.4,180.2 74,174.3 59.7,187.4 47.1,175.1 41.5,180.8 52.8,192 66.6,192 "/>
<polygon class="st0" points="58.5,197.5 58.5,197.5 60.6,197.5 60.6,197.5 "/>
<polygon class="st0" points="55.4,194.5 55.4,194.5 63.8,194.5 63.8,194.5 "/>
<polygon class="st0" points="63.8,194.5 55.4,194.5 58.5,197.5 60.6,197.5 "/>
<polygon class="st0" points="63.8,194.5 55.4,194.5 58.5,197.5 60.6,197.5 "/>
<g>
	<path class="st0" d="M59,126.6c3.2,2.4,7.7,3.7,13.1,3.7c5.9,0,11-1.6,15-4.9c4-3.2,6-7.2,6-12c0-1.9-0.5-3.6-1.4-5
		c-0.9-1.3-2.1-2.1-3.5-2.5c-2.1,4.5-5,8.1-8.7,10.6c-3.7,2.6-8,3.8-12.7,3.8l-2.3,0c-0.4,0-0.8,0-1.2,0.1c-0.3,0.1-0.7,0.2-1.2,0.4
		l-1,0.4l0.5-1c0.2-0.3,0.3-0.5,0.3-0.5l0.7-1.2c0.7-1.3,1.9-1.9,3.5-1.9h3.3c1.3,0,2.7-0.1,3.9-0.2c3-0.4,5.5-1.4,7.5-3.2
		c1.9-1.7,3.7-4.3,5.1-7.7c-1.5-0.3-3-0.4-4.3-0.4c-3.8,0-7,0.8-9.5,2.4c-2.5,1.6-4.2,3.8-5,6.6l-0.2,0.8l-0.5-0.6
		c-0.5-0.6-0.7-1.3-0.7-2.1c0-2.5,1.6-4.7,4.7-6.3c3.1-1.6,6.9-2.4,11.5-2.4c1.3,0,2.9,0.1,4.7,0.4l0.3,0l1-2.8
		c-3.2-0.5-6-0.7-8.5-0.7c-8.3,0-14.6,1.6-18.5,4.9c-1.9,1.6-3.5,3.6-4.6,5.8c-1.1,2.2-1.7,4.6-1.7,7
		C54.8,121.6,56.2,124.5,59,126.6z"/>
	<path class="st0" d="M93.6,87c0.3-0.9,0.4-1.8,0.4-2.6c0-2-0.7-3.7-2.2-5.2c-2.1-2.1-4.8-2.7-8-1.7C87.2,79.9,90.4,83.1,93.6,87z"
		/>
	<path class="st0" d="M134.7,84.8c1.3-0.9,1.9-1.8,1.9-2.7c0-0.2,0-0.8-1.1-0.8c-1.7,0-3.5,1.1-5.3,3.2c-0.4,0.5-0.8,1-1.2,1.5
		c0.6,0.1,1,0.1,1.4,0.1C131.9,86.2,133.4,85.7,134.7,84.8z"/>
	<path class="st0" d="M45.7,151.8h106.1V45.7H45.7V151.8z M100.7,123.4l-4.3,2.3c-0.1,0.1-0.3,0.1-0.5,0.2l-1,0.5l0.5-1
		c1.2-2.7,2.3-5.7,3.3-8.9c1-3.2,1.4-5.5,1.4-7c0-0.6-0.1-2-0.7-2c-0.1,0-0.6,0.1-1.9,1l-0.4,0.2l-0.8-1.5l0.7-0.4
		c2.2-1.5,3.8-2.1,4.7-2.1c1.4,0,2,1.2,2,3.6c0,2.3-0.8,5.7-2.5,10l-1.2,3.2c6.5-3.3,10.3-7.6,11.5-12.9h-1.6
		c-1.7,0-2.4,0.2-2.7,0.3c-0.4,0.2-0.9,0.8-1.3,1.6l-0.3,0.6H104l0.3-0.6c1-1.8,1.8-3.5,2.3-5.1l0.1-0.2h8.8l-0.2,0.5
		C112.9,113.5,108,119.4,100.7,123.4z M121.7,121.2c-3.3,3.1-6,4.6-8.3,4.6c-1.5,0-3.3-0.6-3.3-3.6c0-2.5,0.8-5.2,2.3-7.9
		c1.5-2.7,3.5-5,5.9-6.8c2.9-2.2,5.5-3.3,7.8-3.3c2,0,2.3,1.1,2.3,1.8c0,0.7-0.3,1.5-1,2.5c-0.6,0.9-1.5,1.7-2.4,2.4
		c-0.9,0.7-2,1.3-3.4,1.8c-1.4,0.6-2.5,0.8-3.2,0.8c-0.6,0-1.4-0.2-1.8-1.2c-0.6,1-1.1,2-1.6,3.1c-0.8,2-1.3,3.9-1.3,5.4
		c0,1.9,0.9,2.2,1.7,2.2c1.4,0,2.9-0.8,4.5-2.4c1.6-1.7,3-3.8,4-6.4l0.3-0.8l0.4,0.8c0.2,0.5,0.4,1,0.4,1.4
		C125.1,117.2,124,119,121.7,121.2z M147.1,105.9c0,0.6-0.3,2-3,7.7c-3.3,6.4-3.8,7.9-3.8,8.2c0,0.3,0.1,0.3,0.3,0.3
		c0.3,0,0.8-0.1,1.8-0.8l0.4-0.3l0.8,1.3l-0.3,0.2c-2,1.4-4.4,2.4-7.1,3l-0.5,0.1l0.1-0.5c0.4-2.7,2-6.9,4.8-12.4l1.6-3
		c0.7-1.4,0.8-1.8,0.8-1.8c0-0.3-0.1-0.3-0.2-0.3c-0.2,0-0.8,0.2-2.6,1.6c-1.4,1.1-2.8,2.4-4.1,3.9c-2.7,3-5.1,6.8-6.9,11l-0.1,0.2
		l-0.2,0c-0.7,0.2-1.8,0.6-3.2,1.1l-0.9,0.4l0.4-0.9c1.5-3,3-6.5,4.5-10.3c1.9-4.7,2.3-6.2,2.3-6.6c0-0.5-0.2-0.5-0.3-0.5
		c-0.1,0-0.5,0-1.5,0.3l-0.7,0.2l-0.3-1.5l0.3-0.1c2.3-0.7,4.3-1.4,6.2-2.2l0.8-0.4l0.1,0.5c0,0.2,0.1,0.4,0.1,0.5
		c0,1.4-0.8,4-2.6,7.9c2.2-2.4,4.2-4.4,6.1-5.9c2.3-1.8,4.1-2.7,5.5-2.7C146.5,104.2,147.1,104.8,147.1,105.9z M130.2,82
		c2.9-2.2,5.5-3.3,7.8-3.3c2,0,2.3,1.1,2.3,1.8c0,0.7-0.3,1.5-1,2.5c-0.6,0.9-1.5,1.7-2.4,2.4c-0.9,0.7-2,1.3-3.4,1.8
		c-1.4,0.6-2.5,0.8-3.2,0.8c-0.6,0-1.4-0.2-1.8-1.2c-0.6,1-1.1,2-1.6,3.1c-0.8,2-1.3,3.9-1.3,5.4c0,1.9,0.9,2.2,1.7,2.2
		c1.4,0,2.9-0.8,4.5-2.4c1.6-1.7,3-3.8,4-6.4l0.3-0.8l0.4,0.8c0.2,0.5,0.4,1,0.4,1.4c0,1.7-1.1,3.5-3.4,5.7c-3.3,3.1-6,4.6-8.3,4.6
		c-1.5,0-3.3-0.6-3.3-3.6c0-2.5,0.8-5.2,2.3-7.9C125.9,86,127.8,83.7,130.2,82z M53.2,109.4c1.9-2.7,4.7-5,8.2-6.8
		c2.8-1.4,5.8-2.6,8.9-3.4c-2.4-0.7-4.4-1.8-6.1-3.3c-3.3-2.9-5.1-6.5-5.1-10.7c0-3.4,1.2-6.2,3.7-8.4c2.4-2.2,5.5-3.3,9.3-3.3
		c3.5,0,6.8,1,10.1,3c1.7-0.8,3.5-1.2,5.4-1.2c2.4,0,4.5,0.8,6,2.5c1.5,1.6,2.3,3.8,2.3,6.4c0,2.2-0.9,4.8-2.6,7.7L93,92.3l-0.3-0.4
		C89,87.1,84.8,83,80.2,79.7c-2.2,2-3.3,4.6-3.3,7.7c0,1.4,0.2,2.8,0.7,4.4l0.3,1l-0.9-0.6c-1.7-1.1-2.5-2.8-2.5-4.8
		c0-3,1.4-6,4.2-8.6c-3-2-5.8-3-8.5-3c-2.5,0-4.7,0.8-6.4,2.4c-1.7,1.6-2.5,3.6-2.5,6.1c0,3.2,1.4,6.1,4.1,8.4
		c1.6,1.4,3.7,2.5,6.3,3.3c2.6,0.8,5.4,1.2,8.3,1.2c8.1,0,14.8-3.3,20-9.8c3.2-4,6.1-9.9,8.5-17.4H88.8l-2.1,0.1
		c-0.7,0.1-1.3,0.2-1.7,0.5c-0.4,0.3-0.7,0.8-1,1.5l-0.3,0.6L82.1,72l0.4-0.9c0.4-0.8,0.7-1.6,1-2.3l0.8-2.1c0-0.1,0.1-0.2,0.2-0.5
		l0.1-0.2h27.9l-0.3,1.1c-0.2,0.5-0.3,1-0.5,1.5l0.1,0c1.9-0.6,3.9-1.5,5.8-2.5l1-0.6l0,0.6c0,0.3,0,0.6,0,0.7c0,1.3-0.5,3-1.4,5.4
		l-6.7,17.1c5.7-6.9,9.7-10.3,12.4-10.3c0.9,0,1.5,0.6,1.5,1.5c0,0.6-0.3,1.6-0.9,2.9l-1.4,3.4c-3.1,7-3.8,9.1-3.8,9.7
		c0,0.1,0,0.2,0.2,0.2c0.3,0,0.8-0.1,2-0.8l0.5-0.3l0.8,1.3l-0.3,0.2c-1.6,0.9-3.7,1.8-6.2,2.7l-1.2,0.4l0-0.6
		c0.2-2.6,1.9-7.4,5.3-14.7c0.7-1.4,0.8-1.9,0.8-2.1c0-0.4-0.1-0.4-0.2-0.4c-0.2,0-0.7,0.1-2,1.2c-1.1,0.8-2.1,1.8-3.1,2.9
		c-1.5,1.7-3,3.7-4.6,6c-1.5,2.3-2.6,4.3-3.4,5.9l-0.1,0.2l-0.2,0c-1.1,0.1-2.1,0.5-3.1,0.9l-0.9,0.5l0.7-1.6
		c1.1-2.6,2.1-5.1,3.1-7.5l5.8-14.6c1.7-4.4,2.1-5.9,2.1-6.5c0-0.4-0.2-0.5-0.4-0.5c-0.1,0-0.4,0-1.3,0.4l-0.7,0.3l-0.4-1.1
		c-3.4,9.5-7.5,16.7-12.1,21.6c-2.9,3-6.3,5.4-10.1,7.1c-0.2,0.1-0.3,0.2-0.5,0.2c0.8,0.1,1.5,0.1,2.2,0.2l0.5,0.1l-2.4,6.1
		c2.8,0.8,4.9,1.9,6.3,3.2c1.4,1.5,2.2,3.4,2.2,5.7c0,4.4-2.1,8.4-6.3,12c-2.6,2.2-5.7,4-9.4,5.2c-3.6,1.2-7.5,1.9-11.5,1.9
		c-6,0-10.9-1.2-14.5-3.7c-3.6-2.5-5.4-5.9-5.4-10.1C50.3,115.1,51.3,112.1,53.2,109.4z"/>
	<path class="st0" d="M122.8,110.3c1.3-0.8,1.9-1.8,1.9-2.7c0-0.3,0-0.8-1.1-0.8c-1.7,0-3.4,1.1-5.3,3.2c-0.4,0.5-0.8,1-1.2,1.5
		c0.6,0.1,1,0.1,1.4,0.1C120,111.6,121.5,111.2,122.8,110.3z"/>
	<polygon class="st0" points="28.1,119.4 42.3,105.2 42.3,93.9 22.4,113.7 	"/>
	<path class="st0" d="M41.1,82.2L5.5,45.4l0.1,71.1L41.1,82.2z M15.6,69.9L27,81.7L15.5,92.8L15.6,69.9z"/>
	<polygon class="st0" points="5.5,131.1 5.5,144.4 17.5,157.4 23.4,152 10.2,137.7 22.5,125.1 16.8,119.5 	"/>
	<polygon class="st0" points="84.8,174.5 104.1,155.2 92.8,155.2 79.1,168.8 	"/>
	<polygon class="st0" points="42.3,119.1 23.5,137.9 59.3,173.7 77.8,155.2 42.3,155.2 	"/>
	<path class="st0" d="M5.5,155.1V192h38.3L5.5,155.1z M13.1,172.7l12.2,11.9H13.1V172.7z"/>
	<path class="st0" d="M81.2,192h8.9l62.2-0.1L118,156.4L81.2,192z M105.8,181.9l11.7-11.4l11.1,11.5L105.8,181.9z"/>
	<rect x="28.5" y="155.4" transform="matrix(0.7276 -0.686 0.686 0.7276 -105.1821 67.5827)" class="st0" width="8" height="21.7"/>
	<polygon class="st0" points="154.4,131.9 154.4,143.2 167.9,156.6 167.8,156.7 167.9,156.7 155.4,169.3 155.5,169.4 155.4,169.5 
		155.4,169.4 155.4,169.4 155.3,169.4 155.4,169.3 141.2,155.2 129.9,155.2 149.8,175.1 155.4,169.5 155.4,169.5 155.4,169.5 
		161,175 173.7,162.2 168.1,156.7 168,156.7 167.9,156.7 168,156.7 168,156.6 168,156.6 168.1,156.7 173.6,151.1 	"/>
	<polygon class="st0" points="154.4,104.9 173.8,85.5 168.1,79.9 154.4,93.6 	"/>
	<path class="st0" d="M192,192v-38.3L155.1,192H192z M184.6,184.4h-11.9l11.9-12.2V184.4z"/>
	<path class="st0" d="M156.1,117.4l35.9,35.9V136l-1-53.5L156.1,117.4z M170.2,117.7l11.3-11.3l0.3,22.8L170.2,117.7z"/>
	<polygon class="st0" points="173.2,47.7 186.4,62 174.1,74.6 179.8,80.2 191.9,67.8 191.9,56.2 179.1,42.3 	"/>
	<polygon class="st0" points="117.7,43.7 154.4,43.7 154.4,78.6 172.5,60.5 136.7,24.7 	"/>
	<polygon class="st0" points="111.9,24.3 92.4,43.7 103.8,43.7 117.5,29.9 	"/>
	<polygon class="st0" points="43.1,32.3 54.5,43.7 65.8,43.7 48.7,26.7 	"/>
	<polygon class="st0" points="137,11 149.6,23.4 155.2,17.7 142.8,5.5 131.2,5.5 117.3,18.3 122.7,24.2 	"/>
	<path class="st0" d="M0,0v197.5h197.4V0H0z M194.4,194.5H3V3h191.4V194.5z"/>
	<path class="st0" d="M5.5,5.5v38.3L42.4,5.5H5.5z M12.8,13.1h11.9L12.8,25.4V13.1z"/>
	<path class="st0" d="M191.9,5.5h-37.2l37.2,35.8V5.5z M185.4,24.7l-12.2-11.9h12.2V24.7z"/>
	<path class="st0" d="M115.6,5.5L44.5,5.6l34.2,35.5L115.6,5.5z M91,15.6L79.3,27L68.2,15.5L91,15.6z"/>
	<polygon class="st0" points="25,38.8 30.6,44.5 24.9,50.2 42.3,67.5 42.3,56.2 30.6,44.5 43.2,32.2 37.6,26.5 	"/>
	<rect x="161.1" y="23.3" transform="matrix(0.7276 -0.686 0.686 0.7276 21.5306 122.5777)" class="st0" width="8" height="21.7"/>
	<polygon class="st0" points="59.7,187.4 47.1,175.1 41.5,180.8 52.8,192 66.6,192 79.4,180.2 74,174.3 	"/>
	<path class="st0" d="M111.5,68.9c0-0.1,0.1-0.3,0.1-0.4l-0.2,0.1L111.5,68.9z"/>
</g>
<g>
	<path class="st0" d="M904.1,13.9c0-1-0.5-1.6-1.5-1.6c-1.4,0-3.1,0.9-5.5,2.7c-1.9,1.5-3.9,3.5-6.1,5.9c1.7-4,2.6-6.6,2.6-7.9
		c0-0.1,0-0.3-0.1-0.5l-0.1-0.5l-0.8,0.4c-1.8,0.8-3.9,1.6-6.1,2.2l-0.3,0.1l0.3,1.5l0.7-0.2c1-0.3,1.4-0.4,1.5-0.4
		c0.1,0,0.3,0,0.3,0.5c0,0.4-0.4,2-2.3,6.7c-1.5,3.8-3,7.3-4.5,10.3l-0.4,0.9l0.9-0.4c1.4-0.6,2.5-1,3.2-1.2l0.2,0l0.1-0.2
		c1.9-4.3,4.2-8,6.9-11.1c1.3-1.5,2.7-2.8,4.1-3.9c1.8-1.5,2.5-1.6,2.6-1.6c0.1,0,0.2,0,0.2,0.3c0,0.1-0.1,0.5-0.8,1.8l-1.6,3
		c-2.8,5.5-4.4,9.7-4.8,12.4l-0.1,0.5l0.5-0.1c2.7-0.6,5.1-1.6,7.1-3l0.3-0.2l-0.8-1.3l-0.4,0.3c-1,0.6-1.5,0.7-1.8,0.7
		c-0.2,0-0.3,0-0.3-0.3c0-0.3,0.5-1.8,3.8-8.2C903.8,15.9,904.1,14.5,904.1,13.9z"/>
	<path class="st0" d="M883.1,12.2c-2.3,0-4.9,1.1-7.8,3.3c-2.4,1.8-4.3,4.1-5.9,6.8c-1.5,2.7-2.3,5.4-2.3,7.9c0,3,1.8,3.6,3.3,3.6
		c2.3,0,5.1-1.5,8.3-4.6c2.3-2.1,3.4-4,3.4-5.7c0-0.4-0.1-0.9-0.4-1.4l-0.4-0.7l-0.3,0.8c-1.1,2.6-2.4,4.8-4,6.4
		c-1.6,1.6-3.1,2.4-4.5,2.4c-0.8,0-1.7-0.2-1.7-2.2c0-1.6,0.4-3.4,1.3-5.4c0.5-1.1,1-2.1,1.6-3.1c0.5,1,1.2,1.2,1.8,1.2
		c0.8,0,1.8-0.3,3.2-0.8c1.4-0.5,2.5-1.2,3.4-1.8c1-0.7,1.8-1.5,2.4-2.4c0.7-0.9,1-1.7,1-2.4C885.5,13.3,885.2,12.2,883.1,12.2z
		 M875.3,18c1.8-2.1,3.6-3.2,5.3-3.2c1.1,0,1.1,0.5,1.1,0.8c0,0.9-0.6,1.9-1.9,2.7c-1.3,0.9-2.8,1.3-4.3,1.3c-0.3,0-0.8,0-1.4-0.1
		C874.5,19,874.9,18.5,875.3,18z"/>
	<path class="st0" d="M863.8,13.4l-0.1,0.3c-0.5,1.5-1.3,3.2-2.3,5.1l-0.3,0.6h1.7l0.3-0.6c0.4-0.9,0.9-1.4,1.3-1.6
		c0.3-0.2,1-0.3,2.7-0.3h1.6c-1.2,5.3-5,9.6-11.5,12.9l1.2-3.2c1.6-4.3,2.5-7.7,2.5-10c0-2.4-0.7-3.6-2.1-3.6
		c-0.9,0-2.5,0.7-4.7,2.1l-0.7,0.4l0.8,1.5l0.4-0.2c1.3-0.9,1.7-1,1.9-1c0.6,0,0.7,1.4,0.7,2c0,1.4-0.5,3.8-1.4,7
		c-1,3.2-2.1,6.2-3.3,8.9l-0.5,1l1-0.5c0.2-0.1,0.4-0.2,0.5-0.2l4.3-2.3c7.3-4,12.2-9.9,14.7-17.5l0.2-0.5H863.8z"/>
	<path class="st0" d="M852.3,15.4c-1.3-1.4-3.5-2.4-6.3-3.2l2.4-6.1L848,6c-2.1-0.3-4.6-0.5-7.3-0.5c-8.4,0-15.9,1.7-22.2,5
		c-3.6,1.9-6.3,4.2-8.2,6.9c-1.9,2.7-2.9,5.7-2.9,8.9c0,4.2,1.8,7.6,5.4,10.1c3.6,2.5,8.4,3.7,14.5,3.7c4,0,7.8-0.6,11.5-1.8
		c3.6-1.2,6.8-3,9.4-5.2c4.2-3.6,6.3-7.7,6.3-12C854.4,18.7,853.7,16.8,852.3,15.4z M844.1,11.7l-0.3,0c-1.8-0.2-3.4-0.4-4.7-0.4
		c-4.6,0-8.4,0.8-11.5,2.4c-3.1,1.7-4.7,3.8-4.7,6.3c0,0.7,0.2,1.4,0.7,2.1l0.5,0.6l0.2-0.8c0.8-2.8,2.5-5,5-6.6
		c2.5-1.6,5.7-2.4,9.5-2.4c1.3,0,2.7,0.1,4.3,0.4c-1.4,3.4-3.1,6-5.1,7.7c-2,1.8-4.5,2.9-7.5,3.2c-1.3,0.2-2.6,0.2-3.9,0.2h-3.3
		c-1.6,0-2.8,0.7-3.5,1.9l-0.7,1.3c-0.1,0.1-0.2,0.3-0.3,0.5l-0.5,1l1-0.4c0.5-0.2,0.9-0.4,1.2-0.4c0.4-0.1,0.8-0.1,1.2-0.1l2.3,0
		c4.7,0,9-1.3,12.7-3.8c3.6-2.5,6.6-6.1,8.7-10.6c1.4,0.4,2.6,1.2,3.5,2.5c1,1.4,1.5,3.1,1.5,5c0,4.7-2,8.8-6,12
		c-4,3.2-9,4.9-15,4.9c-5.4,0-9.9-1.2-13.1-3.7c-2.8-2.1-4.2-5-4.2-8.8c0-2.4,0.6-4.7,1.7-7c1.1-2.2,2.6-4.2,4.6-5.8
		c4-3.2,10.2-4.9,18.5-4.9c2.4,0,5.3,0.2,8.5,0.7L844.1,11.7z"/>
	<path class="st0" d="M895.1-13.3c-2.3,0-4.9,1.1-7.8,3.3c-2.4,1.8-4.3,4.1-5.9,6.8c-1.5,2.7-2.3,5.4-2.3,7.9c0,3,1.8,3.6,3.3,3.6
		c2.3,0,5.1-1.5,8.3-4.6c2.3-2.1,3.4-4,3.4-5.7c0-0.4-0.1-0.9-0.4-1.4l-0.4-0.7L893-3.4c-1.1,2.6-2.4,4.8-4,6.4
		c-1.6,1.6-3.1,2.4-4.5,2.4c-0.8,0-1.7-0.2-1.7-2.2c0-1.6,0.4-3.4,1.3-5.4c0.5-1.1,1-2.1,1.6-3.1c0.5,1,1.2,1.2,1.8,1.2
		c0.8,0,1.8-0.3,3.2-0.8c1.4-0.5,2.5-1.2,3.4-1.8c1-0.7,1.8-1.5,2.4-2.4c0.7-0.9,1-1.7,1-2.5C897.4-12.2,897.1-13.3,895.1-13.3z
		 M887.2-7.5c1.8-2.1,3.6-3.2,5.3-3.2c1.1,0,1.1,0.5,1.1,0.8c0,0.9-0.6,1.9-1.9,2.7c-1.3,0.9-2.8,1.3-4.3,1.3c-0.3,0-0.8,0-1.4-0.1
		C886.4-6.5,886.8-7,887.2-7.5z"/>
	<path class="st0" d="M879.9-13c-2.6,0-6.7,3.4-12.4,10.3l6.7-17.1c0.9-2.4,1.4-4.2,1.4-5.4c0-0.2,0-0.4,0-0.7l0-0.6l-1,0.6
		c-1.9,1-3.9,1.9-5.8,2.5l-0.4,0.1l0.5,1.4l0.7-0.3c0.9-0.3,1.2-0.3,1.3-0.3c0.2,0,0.4,0,0.4,0.5c0,0.5-0.4,2.1-2.1,6.5L863.5-1
		c-0.9,2.4-2,4.9-3.1,7.5l-0.7,1.6l0.9-0.5c0.9-0.5,2-0.8,3.1-0.9l0.2,0l0.1-0.2c0.7-1.7,1.9-3.7,3.4-5.9c1.5-2.3,3-4.3,4.6-6
		c1-1.1,2-2.1,3.1-2.9c1.4-1.1,1.9-1.2,2-1.2c0.1,0,0.2,0,0.2,0.4c0,0.2-0.1,0.7-0.7,2.1c-3.4,7.3-5.1,12.1-5.3,14.7l0,0.6l1.2-0.4
		c2.6-0.9,4.7-1.8,6.2-2.7l0.4-0.2L878,3.6l-0.5,0.3c-1.2,0.7-1.7,0.8-2,0.8c-0.2,0-0.2,0-0.2-0.2c0-0.6,0.7-2.7,3.8-9.7l1.4-3.4
		c0.6-1.3,0.9-2.3,0.9-2.9C881.3-12.5,880.8-13,879.9-13z"/>
	<path class="st0" d="M841.6-26l-0.1,0.2c-0.1,0.3-0.2,0.4-0.2,0.5l-0.8,2.1c-0.3,0.7-0.6,1.4-1,2.3l-0.4,0.9l1.7,0.3l0.3-0.6
		c0.3-0.7,0.7-1.2,1-1.5c0.4-0.3,0.9-0.4,1.7-0.5l2.1-0.1h19.7c-2.4,7.5-5.3,13.4-8.5,17.4C851.9,1.7,845.1,5,837,5
		c-2.9,0-5.7-0.4-8.3-1.2c-2.6-0.8-4.7-1.9-6.3-3.3c-2.7-2.3-4.1-5.1-4.1-8.4c0-2.4,0.8-4.5,2.5-6.1c1.7-1.6,3.8-2.4,6.4-2.4
		c2.7,0,5.5,1,8.5,3c-2.8,2.7-4.2,5.6-4.2,8.6c0,2.1,0.9,3.7,2.5,4.8l0.9,0.6l-0.3-1c-0.5-1.5-0.7-3-0.7-4.4c0-3.1,1.1-5.7,3.3-7.7
		c4.6,3.3,8.8,7.4,12.5,12.2l0.3,0.4l0.3-0.5c1.7-2.9,2.6-5.5,2.6-7.7c0-2.6-0.8-4.7-2.3-6.4c-1.5-1.6-3.6-2.5-6-2.5
		c-1.9,0-3.7,0.4-5.4,1.2c-3.2-2-6.6-3-10.1-3c-3.8,0-6.9,1.1-9.3,3.3c-2.4,2.2-3.6,5-3.6,8.4c0,4.2,1.7,7.8,5.1,10.7
		c3.3,2.8,7.8,4.3,13.4,4.3c3.9,0,7.8-0.9,11.7-2.6c3.8-1.7,7.2-4.1,10.1-7.1c4.9-5.1,9.2-13,12.8-23.4l0.3-1.1H841.6z M840.9-14.4
		c3.2-1.1,5.9-0.4,8,1.7c1.4,1.4,2.2,3.2,2.2,5.2c0,0.8-0.1,1.7-0.4,2.6C847.4-8.9,844.2-12.1,840.9-14.4z"/>
</g>
</svg>
