<?xml version="1.0" encoding="utf-8"?>
<!-- Generator: Adobe Illustrator 22.1.0, SVG Export Plug-In . SVG Version: 6.00 Build 0)  -->
<svg version="1.1" xmlns="http://www.w3.org/2000/svg" xmlns:xlink="http://www.w3.org/1999/xlink" x="0px" y="0px"
	 viewBox="0 0 1000 225" style="enable-background:new 0 0 1000 225;" xml:space="preserve">
<g id="Layer_7">
	<path d="M975.9,81.3c0-5.4-2.9-8.5-7.8-8.5c-7.2,0-16.6,4.7-28.9,14.4c-10,7.9-20.8,18.3-32.3,31c9.1-21,13.5-34.7,13.5-41.9
		c0-0.5-0.1-1.4-0.3-2.6l-0.4-2.6l-4.1,1.9c-9.7,4.3-20.6,8.3-32.5,11.7l-1.7,0.5l1.5,8.1l3.6-1c5.4-1.6,7.2-1.9,7.9-1.9
		c0.8,0,1.8,0,1.8,2.7c0,2.4-2.1,10.4-12,35.2c-8,20.1-16.1,38.4-24,54.6l-2.4,4.8l4.9-2.1c7.3-3.1,13-5.2,16.9-6.1l1-0.2l0.4-0.9
		c9.8-22.6,22.1-42.3,36.6-58.5c7-7.8,14.2-14.8,21.6-20.8c9.6-7.8,13-8.6,14-8.6c0.5,0,0.9,0,0.9,1.5c0,0.4-0.3,2.4-4.1,9.7
		l-8.4,16.1c-15,29.1-23.5,51.1-25.4,65.5l-0.4,2.8l2.7-0.6c14.4-3,27-8.3,37.6-15.9l1.5-1.1l-4.2-7l-2.3,1.8c-5.2,3.3-8.1,4-9.6,4
		c-1,0-1.5-0.1-1.5-1.8c0-1.7,2.6-9.5,20-43.4C974.3,91.9,975.9,84.4,975.9,81.3z"/>
</g>
<g id="Layer_6">
	<path d="M868.2,76.7c-12.2,0-26.1,5.8-41.4,17.3c-12.5,9.4-23,21.5-31,35.9c-8,14.5-12.1,28.6-12.1,41.9c0,15.8,9.4,19.1,17.3,19.1
		c12.4,0,26.8-7.9,44.1-24.3c12-11.3,17.8-21.1,17.8-30.1c0-2.2-0.7-4.7-2-7.4l-2-3.9l-1.7,4.1c-5.7,13.8-12.9,25.3-21.4,34
		c-8.3,8.5-16.4,12.9-23.9,12.9c-4.3,0-9.1-1.3-9.1-11.4c0-8.3,2.3-18,6.7-28.7c2.4-5.8,5.2-11.2,8.3-16.3c2.4,5.3,6.5,6.5,9.7,6.5
		c4.1,0,9.7-1.4,17.1-4.4c7.2-2.9,13.2-6.1,18-9.5c5.1-3.8,9.4-8.1,12.8-12.9c3.6-5,5.3-9.2,5.3-13C880.6,82.7,879,76.7,868.2,76.7z
		 M826.7,107.5c9.6-11.2,18.9-16.9,27.9-16.9c6,0,6,2.8,6,4.2c0,5-3.4,9.8-10.1,14.4c-6.9,4.7-14.6,7-22.8,7c-1.8,0-4.3-0.2-7.3-0.6
		C822.4,112.8,824.5,110.1,826.7,107.5z"/>
</g>
<g id="Layer_5">
	<path d="M767.1,76.6l-0.5,1.3c-2.8,8.1-6.9,17.2-12.2,26.9l-1.6,2.9h9.2l1.6-3.2c2.3-4.6,4.6-7.5,6.9-8.6c1.7-0.8,5.6-1.8,14.5-1.8
		h8.6c-6.2,27.9-26.7,50.8-61,68.1l6.6-16.8c8.7-22.9,13.2-40.7,13.2-52.9c0-12.5-3.7-18.8-10.9-18.8c-4.9,0-13.2,3.7-25.1,11.4
		l-3.5,2.1l4.1,7.9l1.9-1.3c6.8-4.8,9.3-5.3,10-5.3c3.1,0,3.5,7.6,3.5,10.8c0,7.5-2.5,19.9-7.6,36.8c-5.1,17-10.9,32.8-17.4,46.9
		l-2.5,5.4l5.2-2.8c1.1-0.6,1.9-1,2.5-1.3l22.6-12.4c38.6-21.2,64.7-52.4,77.7-92.7l0.8-2.6H767.1z"/>
</g>
<g id="Layer_4">
	<path d="M704.8,95.3c-7-7.1-18-12.7-32.7-16.7l12.7-31.6l-2.5-0.4c-11.1-1.6-23.8-2.4-37.8-2.4c-43.7,0-82.7,8.8-115.8,26.1
		c-18.6,9.7-33,21.7-42.9,35.7c-10,14-15,29.6-15,46.3c0,22.1,9.5,39.8,28.4,52.8c18.6,12.8,44,19.3,75.4,19.3
		c20.7,0,40.8-3.2,59.7-9.6c18.9-6.4,35.4-15.5,48.8-27.1c21.9-18.8,33-39.9,33-62.7C716,112.8,712.2,102.8,704.8,95.3z M661.9,76.3
		l-1.5-0.2c-9.4-1.3-17.7-1.9-24.6-1.9c-23.7,0-43.9,4.3-59.8,12.6c-16.3,8.6-24.6,19.7-24.6,32.9c0,3.8,1.2,7.5,3.6,10.8l2.4,3.4
		l1.1-4c4.2-14.7,13-26.2,26.1-34.4C597.8,87.2,614.4,83,634,83c6.7,0,14.2,0.8,22.2,2.3c-7.5,17.7-16.4,31.3-26.5,40.2
		c-10.4,9.3-23.6,14.9-39.1,16.8c-6.6,0.8-13.5,1.2-20.5,1.2h-17.4c-8.5,0-14.7,3.4-18.3,10.1l-3.4,6.5c-0.3,0.4-0.9,1.3-1.7,2.8
		l-2.7,5l5.2-2.2c2.7-1.1,4.9-1.9,6.5-2.3c1.9-0.4,4-0.6,6.2-0.6l12.1,0.1c24.5,0,46.8-6.7,66.2-20c19-13,34.2-31.5,45.2-55.1
		c7.3,2,13.4,6.4,18,13.1c5,7.2,7.6,16,7.6,26c0,24.7-10.5,45.6-31.3,62.3c-20.9,16.8-47.1,25.3-78.1,25.3c-28.4,0-51.3-6.4-68.3-19
		c-14.5-10.9-21.9-26.3-21.9-45.8c0-12.4,2.9-24.6,8.6-36.3c5.7-11.7,13.7-21.9,23.8-30.2c20.6-16.9,53.1-25.5,96.5-25.5
		c12.6,0,27.4,1.2,44.1,3.7L661.9,76.3z"/>
</g>
<g id="Layer_3">
	<path d="M435.6,103.8c-12.2,0-26.1,5.8-41.4,17.3c-12.6,9.4-23,21.5-31,35.9c-8,14.5-12.1,28.6-12.1,41.9
		c0,15.8,9.4,19.1,17.3,19.1c12.4,0,26.8-7.9,44.1-24.3c12-11.3,17.8-21.1,17.8-30.1c0-2.2-0.7-4.7-2-7.4l-2-3.9l-1.7,4.1
		c-5.7,13.8-12.9,25.3-21.4,34c-8.3,8.5-16.4,12.9-23.9,12.9c-4.3,0-9.1-1.3-9.1-11.4c0-8.3,2.3-18,6.7-28.7
		c2.4-5.8,5.2-11.3,8.3-16.3c2.4,5.3,6.5,6.5,9.7,6.5c4.1,0,9.7-1.4,17.1-4.4c7.2-2.9,13.2-6.1,18-9.5c5.1-3.8,9.4-8.1,12.8-12.9
		c3.6-5,5.3-9.2,5.3-13C448,109.9,446.4,103.8,435.6,103.8z M394.1,134.7c9.6-11.2,18.9-16.9,27.9-16.9c6,0,6,2.8,6,4.2
		c0,5-3.4,9.8-10.1,14.4c-6.9,4.7-14.6,7-22.8,7c-1.8,0-4.3-0.2-7.3-0.6C389.8,139.9,391.9,137.2,394.1,134.7z"/>
</g>
<g id="Layer_2">
	<path d="M353.6,108c-13.8,0-35.3,17.8-65.4,54.4l35.6-90.7c5-12.7,7.4-22.1,7.4-28.8c0-0.8,0-2-0.1-3.7L331,36l-5.2,3
		c-10.2,5.5-20.6,10.1-30.7,13.5l-1.9,0.6l2.6,7.6l3.5-1.4c4.7-1.6,6.4-1.8,7-1.8c1.2,0,2.2,0.2,2.2,2.6c0,2.8-1.9,11.1-11,34.3
		l-30.6,77.2c-5,12.7-10.5,26.1-16.3,39.8l-3.6,8.4l4.9-2.5c5-2.6,10.4-4.2,16.2-5l1.1-0.1l0.4-1c3.8-8.9,9.8-19.4,17.8-31.4
		c8-12,16.1-22.6,24.1-31.5c5.2-5.9,10.7-11.2,16.3-15.6c7.2-5.7,9.9-6.3,10.7-6.3c0.4,0,1,0,1,2c0,1-0.5,3.8-4,11.1
		c-18,38.5-27.2,64-28.2,77.8l-0.2,3.1l6.1-2.2c13.5-4.9,24.6-9.7,33-14.3l1.9-1l-4.4-6.7l-2.8,1.5c-6.3,3.4-9.2,4.2-10.6,4.2
		c-1,0-1-0.2-1-0.9c0-3.1,3.5-14.4,19.9-51.3l7.5-17.8c3.1-7.1,4.5-12.2,4.5-15.5C361.5,111,358.6,108,353.6,108z"/>
</g>
<g id="Layer_1">
	<path d="M150.6,40.9l-0.5,1.2c-0.6,1.4-0.9,2.2-1.1,2.5l-4.4,11.3c-1.4,3.5-3.1,7.5-5.1,12l-2.2,5l9.1,1.9l1.3-3
		c1.7-3.8,3.5-6.4,5.5-7.8c1.9-1.4,4.9-2.2,8.8-2.5l11.2-0.5h104.3c-12.9,39.9-28,70.9-44.9,92.1c-27.5,34.6-63.2,52.1-106.1,52.1
		c-15.5,0-30.3-2.1-44-6.3c-13.6-4.2-24.8-10-33.3-17.4c-14.4-12.3-21.7-27.2-21.7-44.4c0-12.9,4.5-23.7,13.4-32.2
		C49.7,96.3,61.1,92,74.6,92c14.1,0,29.3,5.4,45,16.1c-14.9,14.2-22.4,29.6-22.4,45.7c0,10.9,4.5,19.6,13.5,25.7l4.7,3.2l-1.7-5.4
		c-2.5-8.1-3.8-15.9-3.8-23.2c0-16.5,5.8-30.2,17.3-40.8c24.4,17.6,46.6,39.2,66.2,64.5l1.8,2.3l1.5-2.5
		c9.2-15.6,13.9-29.3,13.9-40.8c0-13.7-4.1-25.1-12.3-33.7c-8.2-8.7-18.9-13.1-31.9-13.1c-10.1,0-19.7,2.2-28.6,6.5
		c-17.1-10.5-35-15.8-53.3-15.8c-19.9,0-36.4,5.8-49.2,17.2c-12.8,11.5-19.3,26.4-19.3,44.5c0,22.2,9,41.3,26.8,56.8
		c17.3,15,41.1,22.6,70.7,22.6c20.6,0,41.4-4.6,61.8-13.7c20.4-9.1,38.4-21.7,53.5-37.5c26-27.1,48.7-68.8,67.6-123.8l1.8-5.7H150.6
		z M147,102.5c16.8-5.7,31.4-2.2,42.4,8.8c7.6,7.6,11.4,16.8,11.4,27.3c0,4.2-0.8,8.8-2.3,13.8C181.5,131.4,164.2,114.6,147,102.5z"
		/>
</g>
</svg>
