<?xml version="1.0" encoding="utf-8"?>
<!-- Generator: Adobe Illustrator 22.1.0, SVG Export Plug-In . SVG Version: 6.00 Build 0)  -->
<svg version="1.1" xmlns="http://www.w3.org/2000/svg" xmlns:xlink="http://www.w3.org/1999/xlink" x="0px" y="0px"
	 viewBox="0 0 939.8 697.5" style="enable-background:new 0 0 939.8 697.5;" xml:space="preserve">
<g id="Layer_7">
	<path d="M939.8,431.4c0-10.1-5.3-15.9-14.6-15.9c-13.3,0-30.9,8.8-53.7,26.8c-18.5,14.6-38.7,34-60.1,57.7
		c16.9-39,25.2-64.6,25.2-77.9c0-0.9-0.2-2.5-0.5-4.9l-0.8-4.9l-7.6,3.5c-18,8-38.3,15.3-60.5,21.8l-3.2,0.9l2.8,15l6.6-1.9
		c10-3,13.5-3.5,14.6-3.5c1.5,0,3.3,0,3.3,5c0,4.4-3.9,19.3-22.3,65.5c-14.9,37.4-29.9,71.5-44.6,101.5l-4.4,9l9.2-3.9
		c13.5-5.8,24.1-9.6,31.4-11.4l1.8-0.4l0.7-1.7c18.2-42.1,41.1-78.7,68.1-108.8c13-14.5,26.5-27.5,40.2-38.6
		c17.9-14.5,24.2-16,26-16c0.9,0,1.6,0,1.6,2.8c0,0.8-0.5,4.5-7.5,18L875.8,499c-27.9,54.1-43.8,95.1-47.2,121.9L828,626l5.1-1.1
		c26.8-5.5,50.3-15.5,69.9-29.5l2.8-2l-7.8-13.1l-4.2,3.4c-9.6,6.1-15,7.4-17.8,7.4c-1.8,0-2.8-0.2-2.8-3.3
		c0-3.1,4.8-17.7,37.1-80.8C936.7,451.3,939.8,437.2,939.8,431.4z"/>
</g>
<g id="Layer_6">
	<path d="M739.4,422.8c-22.6,0-48.5,10.8-77.1,32.1c-23.3,17.5-42.7,40-57.6,66.8c-15,27-22.6,53.2-22.6,77.8
		c0,29.4,17.5,35.6,32.2,35.6c23,0,49.8-14.8,82-45.1c22.3-21,33.2-39.3,33.2-56c0-4.1-1.3-8.7-3.8-13.7l-3.6-7.3l-3.1,7.6
		c-10.5,25.7-23.9,47-39.8,63.2c-15.5,15.9-30.4,23.9-44.4,23.9c-7.9,0-17-2.4-17-21.2c0-15.5,4.2-33.5,12.5-53.4
		c4.5-10.8,9.6-20.9,15.4-30.3c4.5,9.9,12.1,12,18,12c7.7,0,18-2.7,31.8-8.2c13.4-5.4,24.6-11.3,33.4-17.7
		c9.5-7.1,17.5-15.1,23.8-24c6.7-9.3,9.9-17.2,9.9-24.1C762.5,434.2,759.5,422.8,739.4,422.8z M662.2,480.2
		c17.8-20.9,35.2-31.4,51.8-31.4c11.2,0,11.2,5.2,11.2,7.8c0,9.3-6.3,18.3-18.7,26.7c-12.9,8.7-27.1,13.1-42.3,13.1
		c-3.4,0-7.9-0.4-13.5-1.1C654.3,490,658.1,485,662.2,480.2z"/>
</g>
<g id="Layer_5">
	<path d="M551.3,422.8l-0.9,2.5c-5.2,15.1-12.8,31.9-22.7,50l-3,5.5H542l3-5.9c4.3-8.5,8.6-13.9,12.9-16c3.1-1.5,10.3-3.4,27-3.4
		h15.9c-11.6,52-49.7,94.5-113.4,126.7l12.3-31.2c16.2-42.5,24.5-75.7,24.5-98.5c0-23.3-6.8-35.1-20.3-35.1
		c-9.2,0-24.5,6.9-46.6,21.2l-6.6,4l7.7,14.7l3.5-2.5c12.6-9,17.2-9.9,18.6-9.9c5.8,0,6.4,14.1,6.4,20.1c0,14-4.7,37-14.1,68.4
		c-9.4,31.6-20.3,61-32.4,87.3l-4.6,10l9.7-5.2c2-1.1,3.5-1.9,4.6-2.4l42-23.1c71.7-39.4,120.4-97.4,144.5-172.4l1.6-4.8H551.3z"/>
</g>
<g id="Layer_4">
	<path d="M435.4,457.5c-13-13.1-33.5-23.6-60.9-31.1l23.6-58.8l-4.7-0.7c-20.6-3-44.3-4.5-70.3-4.5c-81.3,0-153.8,16.3-215.3,48.5
		c-34.6,18.1-61.4,40.4-79.9,66.4C9.4,503.4,0,532.4,0,563.4c0,41,17.8,74,52.8,98.2c34.6,23.8,81.8,35.9,140.3,35.9
		c38.6,0,75.9-6,111-17.9c35.2-11.9,65.8-28.9,90.8-50.4c40.7-34.9,61.3-74.2,61.3-116.6C456.3,490.1,449.3,471.5,435.4,457.5z
		 M355.6,422.2l-2.9-0.4c-17.6-2.4-33-3.6-45.8-3.6c-44.2,0-81.6,7.9-111.1,23.5c-30.4,16-45.7,36.6-45.7,61.1
		c0,7.1,2.2,13.9,6.7,20.1l4.4,6.2l2.1-7.4c7.9-27.3,24.2-48.8,48.5-64c24.6-15.3,55.5-23.1,92-23.1c12.5,0,26.4,1.4,41.2,4.2
		c-13.9,33-30.5,58.2-49.3,74.8c-19.4,17.2-43.9,27.7-72.6,31.2c-12.2,1.5-25.1,2.3-38.1,2.3h-32.3c-15.8,0-27.3,6.3-34,18.7
		l-6.4,12.2c-0.6,0.7-1.7,2.5-3.3,5.3l-5.1,9.3l9.8-4.1c5-2.1,9.1-3.5,12.1-4.2c3.6-0.7,7.5-1.1,11.5-1.1l22.4,0.2
		c45.5,0,87-12.5,123.1-37.3c35.3-24.2,63.6-58.6,84-102.5c13.7,3.8,24.9,11.9,33.6,24.4c9.3,13.5,14.1,29.7,14.1,48.3
		c0,45.9-19.6,84.9-58.1,116c-38.8,31.3-87.7,47.1-145.3,47.1c-52.8,0-95.5-11.9-127-35.4c-27-20.3-40.7-48.9-40.7-85.1
		c0-23,5.4-45.8,16-67.5c10.6-21.8,25.6-40.7,44.3-56.2c38.4-31.4,98.8-47.4,179.5-47.4c23.4,0,50.9,2.3,81.9,6.8L355.6,422.2z"/>
</g>
<g id="Layer_3">
	<path d="M862.4,138.7c-22.6,0-48.5,10.8-77.1,32.1c-23.3,17.5-42.7,40-57.6,66.8c-15,27-22.6,53.2-22.6,77.9
		c0,29.4,17.5,35.6,32.2,35.6c23,0,49.8-14.8,82-45.1c22.3-21,33.2-39.3,33.2-56c0-4.1-1.3-8.7-3.8-13.7l-3.6-7.3l-3.1,7.6
		c-10.5,25.7-23.9,47-39.8,63.2c-15.5,15.9-30.4,23.9-44.4,23.9c-7.9,0-17-2.4-17-21.2c0-15.5,4.2-33.5,12.5-53.4
		c4.5-10.8,9.6-20.9,15.4-30.3c4.5,9.9,12.1,12.1,18,12.1c7.6,0,18-2.7,31.8-8.2c13.4-5.4,24.6-11.3,33.4-17.7
		c9.5-7.1,17.5-15.1,23.8-24c6.7-9.3,9.9-17.2,9.9-24.1C885.5,150,882.5,138.7,862.4,138.7z M785.1,196.1
		c17.8-20.8,35.2-31.4,51.8-31.4c11.2,0,11.2,5.2,11.2,7.8c0,9.3-6.3,18.3-18.7,26.7c-12.9,8.7-27.1,13.1-42.3,13.1
		c-3.4,0-7.9-0.4-13.5-1.1C777.2,205.8,781.1,200.8,785.1,196.1z"/>
</g>
<g id="Layer_2">
	<path d="M709.9,146.4c-25.7,0-65.6,33.2-121.6,101.2L654.6,79c9.3-23.6,13.8-41.1,13.8-53.5c0-1.5-0.1-3.8-0.2-6.9l-0.3-6.1
		l-9.8,5.6c-19,10.3-38.3,18.7-57.1,25.1l-3.5,1.2l4.9,14.1l6.6-2.5c8.8-3,11.9-3.4,13.1-3.4c2.3,0,4,0.3,4,4.7
		c0,5.3-3.6,20.6-20.5,63.7l-56.9,143.5c-9.3,23.6-19.5,48.5-30.3,73.9l-6.6,15.7l9.1-4.7c9.2-4.8,19.4-7.9,30.1-9.3l2.1-0.3
		l0.8-1.9c7.1-16.5,18.3-36.2,33.1-58.5c14.8-22.4,30-42.1,44.9-58.6c9.8-11,20-20.8,30.4-29c13.5-10.6,18.4-11.8,19.9-11.8
		c0.8,0,1.8,0,1.8,3.8c0,1.9-1,7-7.4,20.7c-33.5,71.6-50.6,118.9-52.4,144.7l-0.4,5.7l11.4-4.1c25.2-9,45.8-18,61.3-26.6l3.5-1.9
		l-8.1-12.5l-5.2,2.9c-11.7,6.4-17.1,7.8-19.7,7.8c-1.8,0-1.8-0.3-1.8-1.6c0-5.7,6.4-26.9,37-95.4l14-33.1
		c5.7-13.2,8.5-22.7,8.5-28.8C724.5,151.9,719.1,146.4,709.9,146.4z"/>
</g>
<g id="Layer_1">
	<path d="M332.3,16.1l-1,2.2c-1.1,2.6-1.7,4-2,4.7l-8.2,21c-2.7,6.6-5.8,14-9.5,22.2l-4.2,9.3l17,3.4l2.5-5.6
		c3.1-7.1,6.6-12,10.2-14.5c3.6-2.6,9.1-4.2,16.3-4.7l20.8-1h193.9c-24,74.2-52.1,131.8-83.5,171.2c-51.2,64.4-117.6,97-197.3,97
		c-28.8,0-56.3-4-81.8-11.7c-25.3-7.8-46.2-18.6-62-32.4c-26.7-22.9-40.3-50.7-40.3-82.6c0-24,8.4-44.1,24.9-59.9
		C144.7,119,165.8,111,191,111c26.3,0,54.5,10.1,83.7,30c-27.6,26.4-41.6,55-41.6,85c0,20.4,8.4,36.4,25.1,47.7l8.7,5.9l-3.1-10.1
		c-4.7-15.2-7-29.7-7-43.1c0-30.7,10.8-56.2,32.1-75.9c45.3,32.6,86.7,73,123.2,119.9l3.3,4.3l2.8-4.7c17.1-29,25.8-54.6,25.8-76
		c0-25.6-7.7-46.6-22.8-62.7c-15.2-16.1-35.1-24.3-59.3-24.3c-18.8,0-36.7,4-53.2,12c-31.7-19.5-65.1-29.4-99.1-29.4
		c-37,0-67.7,10.8-91.4,32c-23.8,21.3-35.9,49.2-35.9,82.7c0,41.4,16.8,76.9,49.8,105.6c32.2,27.9,76.5,42.1,131.6,42.1
		c38.3,0,77-8.5,114.9-25.4c37.9-16.9,71.3-40.3,99.5-69.8c48.4-50.5,90.7-127.9,125.7-230.3l3.3-10.6H332.3z M325.7,130.7
		C357,120,384,126.6,404.4,147c14.1,14.1,21.2,31.2,21.2,50.8c0,7.9-1.4,16.4-4.3,25.6C389.7,184.3,357.5,153.2,325.7,130.7z"/>
</g>
</svg>
